<svg xmlns="http://www.w3.org/2000/svg" width="512" height="512" xml:space="preserve"><path fill-rule="evenodd" clip-rule="evenodd" fill="#04b51e" d="m500.555 246.359-.211-.156c-2.906 3.957-7.562 6.555-12.836 6.555-8.844 0-16-7.156-16-16 0-3.336 1.023-6.438 2.773-8.996l-.172-.117c3.664-6.051 5.891-13.051 5.891-20.637 0-17.066-10.727-31.555-25.773-37.293C380.062 132.926 296.555 112 208 112c-49.375 0-97.164 6.609-142.703 18.695-1.547.27-3 .695-4.5 1.141l-8.469-30.699C101.898 87.465 154.062 80 208 80c96.062 0 186.625 23.328 266.57 64.445l.039-.078C496.891 156.605 512 180.285 512 207.512c0 14.312-4.227 27.636-11.445 38.847zM32 170.141c0 22.148 17.961 40.125 40.125 40.125 3.438 0 6.734-.562 9.914-1.375l.055.211c40.086-11.07 82.289-17.105 125.906-17.105 84.109 0 163.008 22.09 231.406 60.668l.062-.098c19.43 11.324 32.539 32.332 32.539 56.434 0 36.094-29.266 65.336-65.336 65.336-11.93 0-23.062-3.234-32.695-8.82l-.039.055c-50-28.93-108.008-45.555-169.93-45.555-43.812 0-85.664 8.383-124.141 23.508C70.633 346.859 64 355.625 64 366c0 13.266 10.742 24.008 24.008 24.008 3.18 0 6.227-.656 9-1.781l11.789 29.805c-6.359 2.484-13.227 3.977-20.461 3.977C57.211 422.008 32 396.781 32 365.672c0-23.703 14.68-43.906 35.414-52.211l11.484 29.031-11.508-29.086c42.398-16.352 88.438-25.414 136.617-25.414 67.297 0 130.438 17.656 185.266 48.336 5.164 3.375 11.289 5.352 17.898 5.352 18.141 0 32.836-14.703 32.836-32.828 0-12.242-6.766-22.797-16.695-28.438l.039-.078C359.68 244.516 286.258 224 208 224c-40.672 0-80 5.621-117.391 15.961l.016.055c-5.914 1.574-12.102 2.484-18.5 2.484C32.289 242.5 0 210.211 0 170.375c0-32.953 22.125-60.684 52.305-69.297l8.477 30.758C44.195 136.766 32 151.949 32 170.141zm0 93.867c8.844 0 16 7.156 16 16s-7.156 16-16 16-16-7.156-16-16 7.156-16 16-16zm172.008 104.008c53.156 0 102.922 14.336 145.836 39.141 5.938 2.328 10.164 8.086 10.164 14.852 0 8.844-7.172 16-16 16-2.93 0-5.602-.828-7.969-2.211l-.117.195c-38.672-22.828-83.766-35.977-131.914-35.977-33.609 0-65.688 6.438-95.188 18.055l-11.773-29.75c33.125-13.048 69.18-20.305 106.961-20.305zm195.992 48c8.844 0 16 7.156 16 16 0 8.828-7.156 16-16 16s-16-7.172-16-16c0-8.844 7.156-16 16-16z"/></svg>